<svg xmlns="http://www.w3.org/2000/svg" version="1.1" xmlns:xlink="http://www.w3.org/1999/xlink" xmlns:svgjs="http://svgjs.dev/svgjs" width="850.4" height="850.4"><svg xmlns="http://www.w3.org/2000/svg" version="1.1" viewBox="0 0 850.4 850.4">
  <defs>
    <style>
      .cls-1 {
        fill: #81939f;
      }

      .cls-2 {
        fill: #fff;
      }
    </style>
  </defs>
  <!-- Generator: Adobe Illustrator 28.7.1, SVG Export Plug-In . SVG Version: 1.2.0 Build 142)  -->
  <g>
    <g id="SvgjsG1015">
      <path class="cls-1" d="M701.7,288.6l-36.4,68.1,66.9,38.6c93.9,54.2,58,197.5-50.4,201l-77.2,2.5v77.2c0,108.4-142.1,148.9-199.3,56.9l-40.8-65.6-66.9,38.6c-93.9,54.2-200-48.6-148.9-144.1l36.4-68.1-66.9-38.6c-93.9-54.2-58-197.5,50.4-201l77.2-2.5v-77.2c0-108.4,142.1-148.9,199.3-56.9l40.8,65.6,66.9-38.6c93.9-54.2,200,48.6,148.9,144.1Z"></path>
      <circle class="cls-2" cx="425.2" cy="425.2" r="87.3"></circle>
    </g>
  </g>
</svg><style>@media (prefers-color-scheme: light) { :root { filter: none; } }
@media (prefers-color-scheme: dark) { :root { filter: none; } }
</style></svg>